<svg id="topic-black" data-name="topic-black" xmlns="http://www.w3.org/2000/svg" viewBox="0 0 52 52"><defs><style>.cls-1{fill:#6e6e75;}</style></defs><title>topic-black</title><path class="cls-1" d="M44.31,31.19,34.79,14a8.83,8.83,0,1,0-17.21.14L8,31.15a8.85,8.85,0,1,0,9,3.6L24.82,20.9a8.72,8.72,0,0,0,1.34.14,8.75,8.75,0,0,0,1.44-.15l7.54,13.57a8.73,8.73,0,0,0-1.78,5.25,8.82,8.82,0,1,0,11-8.53ZM26.16,8.94a3.27,3.27,0,1,1-3.27,3.27A3.28,3.28,0,0,1,26.16,8.94ZM9.82,43.06a3.27,3.27,0,1,1,3.27-3.27A3.28,3.28,0,0,1,9.82,43.06ZM42.18,43a3.27,3.27,0,1,1,3.27-3.27A3.28,3.28,0,0,1,42.18,43Z"/></svg>
